<svg width="34" height="28" viewBox="0 0 34 28" fill="none" xmlns="http://www.w3.org/2000/svg">
<path d="M1.7 4H32.3C32.7509 4 33.1833 3.78929 33.5021 3.41421C33.8209 3.03914 34 2.53043 34 2C34 1.46957 33.8209 0.96086 33.5021 0.585787C33.1833 0.210714 32.7509 0 32.3 0H1.7C1.24913 0 0.81673 0.210714 0.497918 0.585787C0.179107 0.96086 0 1.46957 0 2C0 2.53043 0.179107 3.03914 0.497918 3.41421C0.81673 3.78929 1.24913 4 1.7 4V4ZM8.5 8C8.04913 8 7.61673 8.21071 7.29792 8.58579C6.97911 8.96086 6.8 9.46957 6.8 10C6.8 10.5304 6.97911 11.0391 7.29792 11.4142C7.61673 11.7893 8.04913 12 8.5 12H25.5C25.9509 12 26.3833 11.7893 26.7021 11.4142C27.0209 11.0391 27.2 10.5304 27.2 10C27.2 9.46957 27.0209 8.96086 26.7021 8.58579C26.3833 8.21071 25.9509 8 25.5 8H8.5ZM32.3 16H1.7C1.24913 16 0.81673 16.2107 0.497918 16.5858C0.179107 16.9609 0 17.4696 0 18C0 18.5304 0.179107 19.0391 0.497918 19.4142C0.81673 19.7893 1.24913 20 1.7 20H32.3C32.7509 20 33.1833 19.7893 33.5021 19.4142C33.8209 19.0391 34 18.5304 34 18C34 17.4696 33.8209 16.9609 33.5021 16.5858C33.1833 16.2107 32.7509 16 32.3 16ZM25.5 24H8.5C8.04913 24 7.61673 24.2107 7.29792 24.5858C6.97911 24.9609 6.8 25.4696 6.8 26C6.8 26.5304 6.97911 27.0391 7.29792 27.4142C7.61673 27.7893 8.04913 28 8.5 28H25.5C25.9509 28 26.3833 27.7893 26.7021 27.4142C27.0209 27.0391 27.2 26.5304 27.2 26C27.2 25.4696 27.0209 24.9609 26.7021 24.5858C26.3833 24.2107 25.9509 24 25.5 24Z" fill="black"/>
</svg>
