<svg width="24" height="20" viewBox="0 0 24 20" fill="none" xmlns="http://www.w3.org/2000/svg">
<path d="M19.7328 5.26276C18.9989 3.50631 17.7323 2.04894 16.1271 1.11397C14.5219 0.179009 12.6666 -0.181972 10.8456 0.0863475C9.02452 0.354667 7.33819 1.23748 6.04496 2.59952C4.75173 3.96155 3.92295 5.72766 3.68561 7.62722C2.54043 7.91286 1.53584 8.6266 0.862625 9.63288C0.189406 10.6392 -0.105557 11.8679 0.0337506 13.0858C0.173058 14.3036 0.736934 15.4258 1.6183 16.2392C2.49966 17.0526 3.63712 17.5005 4.81468 17.4979C5.13325 17.4979 5.43876 17.3661 5.66402 17.1315C5.88927 16.8969 6.01582 16.5787 6.01582 16.2469C6.01582 15.9151 5.88927 15.5969 5.66402 15.3623C5.43876 15.1276 5.13325 14.9958 4.81468 14.9958C4.17756 14.9958 3.56653 14.7322 3.11602 14.263C2.6655 13.7938 2.41241 13.1574 2.41241 12.4938C2.41241 11.8302 2.6655 11.1938 3.11602 10.7245C3.56653 10.2553 4.17756 9.99169 4.81468 9.99169C5.13325 9.99169 5.43876 9.85988 5.66402 9.62527C5.88927 9.39065 6.01582 9.07244 6.01582 8.74065C6.01889 7.26102 6.52545 5.83042 7.4455 4.70302C8.36555 3.57563 9.63952 2.82442 11.0411 2.58288C12.4426 2.34133 13.881 2.62508 15.1007 3.38371C16.3204 4.14234 17.2424 5.32674 17.7029 6.72648C17.7716 6.94145 17.895 7.13298 18.06 7.2806C18.225 7.42823 18.4254 7.52641 18.6398 7.56467C19.4398 7.72214 20.1651 8.15717 20.6974 8.79887C21.2297 9.44056 21.5376 10.2511 21.571 11.0984C21.6045 11.9457 21.3614 12.7798 20.8815 13.4649C20.4015 14.1499 19.713 14.6454 18.9281 14.8707C18.6191 14.9537 18.3543 15.1611 18.1922 15.4473C18.03 15.7336 17.9836 16.0752 18.0632 16.397C18.1429 16.7189 18.342 16.9946 18.6168 17.1635C18.8916 17.3324 19.2196 17.3807 19.5286 17.2978C20.7927 16.9499 21.9132 16.1818 22.7201 15.1103C23.5269 14.0387 23.976 12.7222 23.9991 11.3607C24.0222 9.99911 23.618 8.66689 22.8481 7.56632C22.0781 6.46576 20.9843 5.65696 19.7328 5.26276ZM12.8743 7.85241C12.7601 7.73852 12.6254 7.64924 12.4779 7.58969C12.1855 7.46457 11.8575 7.46457 11.5651 7.58969C11.4176 7.64924 11.2829 7.73852 11.1687 7.85241L7.56529 11.6055C7.33911 11.8411 7.21205 12.1606 7.21205 12.4938C7.21205 12.8269 7.33911 13.1464 7.56529 13.382C7.79147 13.6176 8.09823 13.7499 8.4181 13.7499C8.73796 13.7499 9.04473 13.6176 9.27091 13.382L10.8204 11.7557V18.749C10.8204 19.0808 10.9469 19.399 11.1722 19.6336C11.3974 19.8682 11.703 20 12.0215 20C12.3401 20 12.6456 19.8682 12.8708 19.6336C13.0961 19.399 13.2227 19.0808 13.2227 18.749V11.7557L14.7721 13.382C14.8838 13.4993 15.0166 13.5923 15.163 13.6558C15.3094 13.7194 15.4664 13.7521 15.6249 13.7521C15.7835 13.7521 15.9405 13.7194 16.0869 13.6558C16.2332 13.5923 16.3661 13.4993 16.4777 13.382C16.5903 13.2657 16.6797 13.1273 16.7407 12.9749C16.8016 12.8224 16.833 12.6589 16.833 12.4938C16.833 12.3286 16.8016 12.1651 16.7407 12.0126C16.6797 11.8602 16.5903 11.7218 16.4777 11.6055L12.8743 7.85241Z" fill="black"/>
</svg>
