<svg width="412" height="604" viewBox="0 0 412 604" fill="none" xmlns="http://www.w3.org/2000/svg">
<path fill-rule="evenodd" clip-rule="evenodd" d="M27.9171 594.112C95.8808 604.439 165.078 604.959 233.605 601.208C260.725 599.177 287.929 598.813 315.03 601.408C331.043 602.6 401.252 607.968 406.987 593.622C403.377 517.222 396.064 440.17 373.634 366.694C364.408 340.603 356.484 318.949 338.479 297.359C332.806 291.464 320.568 279.1 313.555 275.067C307.481 271.575 304.942 272.821 301.453 266.922C297.988 260.404 295.43 249.52 290.51 244.923C285.497 240.239 278.07 241.914 268.866 243.423C270.558 220.56 260.009 214.737 245.476 210.391C219.929 200.637 194.702 205.537 188.273 236.647C176.35 236.647 169.655 241.778 162.416 246.711C159.456 248.725 161.515 253.861 157.979 255.444C151.44 257.774 139.883 257.205 133.586 260.071C104.951 273.107 79.4473 292.013 62.6983 319.621C25.1491 378.567 -0.644551 502.736 3.81896 572.601C1.86336 575.669 4.56777 580.069 5.25501 583.366C6.12275 586.237 8.93229 588.146 11.8647 587.818C15.9567 592.221 22.2859 593.201 27.9171 594.112Z" fill="white"/>
<path fill-rule="evenodd" clip-rule="evenodd" d="M309.229 273.338C308.81 273.107 309.18 272.511 309.598 272.708C329.753 282.166 345.216 298.762 356.095 317.937C367.363 337.793 373.782 360.334 379.317 382.367L379.519 383.164C385.421 406.734 390.44 430.548 394.958 454.418C399.536 478.593 403.207 502.916 406.162 527.34C407.625 539.418 408.927 551.516 409.944 563.638C410.451 569.695 410.914 575.758 411.328 581.822C411.493 584.248 411.65 586.673 411.783 589.101L411.879 590.921C411.963 592.573 412.158 594.23 411.751 595.86C411.399 597.264 410.656 598.534 410.001 599.825C408.708 602.373 405.162 601.955 403.768 599.825L403.365 599.204C402.441 597.776 401.673 596.449 401.382 594.671C401.102 592.947 401.092 591.142 400.966 589.404C400.735 586.205 400.538 583.002 400.311 579.801C399.841 573.061 399.309 566.327 398.723 559.597C397.563 546.315 396.317 533.041 394.788 519.793C392.072 496.251 388.664 472.77 384.646 449.412C380.718 426.595 375.754 404.011 370.576 381.456L370.039 379.121C360.973 339.738 346.999 294.387 309.229 273.338ZM94.5424 427.551C94.6907 427.157 95.3284 427.066 95.4362 427.551C96.794 433.667 96.9282 439.966 97.1358 446.225C97.3401 452.403 97.3318 458.609 97.2419 464.787C96.91 487.499 96.2868 510.192 95.7477 532.903C95.4784 544.262 95.2255 555.623 95.0314 566.984C94.9581 571.244 94.8965 575.504 94.8453 579.766L94.7825 585.385C94.7512 587.87 94.6862 590.325 94.3834 592.807C94.1834 594.439 93.7579 595.998 92.8569 597.397C92.2175 598.389 91.3062 598.894 90.418 599.569L90.2518 599.699C89.1186 600.593 87.9253 600.6 86.8032 599.699L86.4775 599.441C85.4054 598.601 84.479 597.946 83.7947 596.621C82.8428 594.777 82.6904 592.772 82.5286 590.741C82.2831 587.661 82.4459 584.533 82.4776 581.446C82.5412 575.245 82.6268 569.05 82.7357 562.852C83.1346 540.125 83.9233 517.392 85.3605 494.707C86.0377 484.02 86.9559 473.299 88.1876 462.657L88.422 460.662C88.7955 457.53 89.1363 454.344 89.5202 451.145C83.7891 447.114 78.7513 442.222 74.4553 436.669C74.1391 436.26 74.6599 435.689 75.0415 436.083C79.4312 440.631 84.4642 444.255 90.0363 447.104C90.9493 440.412 92.2047 433.756 94.5424 427.551ZM190.29 224.961C190.368 224.899 190.492 224.872 190.565 224.961C191.799 226.396 191.548 228.593 191.587 230.415L191.592 230.582C191.681 233.244 191.698 235.898 191.688 238.563L191.661 247.041C191.656 248.205 191.563 249.419 191.622 250.591L191.654 251.047C192.301 251.709 192.602 252.667 192.383 253.63C192.343 254.863 191.698 255.893 190.757 256.54L192.774 259.404L194.793 262.265C198.952 268.168 203.16 274.021 207.546 279.763C212.015 285.616 216.785 291.25 221.776 296.667C224.214 299.314 226.693 301.924 229.232 304.475C230.263 305.512 231.32 306.524 232.364 307.546L233.405 308.575C234.019 309.188 234.792 309.796 235.201 310.574C235.439 311.035 235.494 312.167 235.58 312.355C236.35 314.049 235.036 316.747 232.854 315.903L232.952 315.836C233.351 315.561 233.095 315.556 232.189 315.824C231.615 315.822 231.079 315.691 230.579 315.43L230.428 315.349C229.724 314.989 229.094 314.295 228.52 313.738L228.377 313.603C227.065 312.374 225.816 311.072 224.558 309.786C221.936 307.105 219.372 304.367 216.888 301.555C211.936 295.948 207.24 290.11 202.796 284.092C198.265 277.963 194.057 271.519 190.437 264.811C189.063 262.265 187.803 259.67 186.596 257.045C184.245 256.292 183.7 253.79 183.863 250.973C182.996 248.954 182.216 246.89 181.753 244.785C181.691 244.497 182.06 244.224 182.282 244.477C183.036 245.332 183.73 246.24 184.4 247.174C184.803 245.199 185.313 243.381 185.555 242.222L186.596 237.107C180.726 236.802 174.292 239.215 170.244 243.438C170.027 244.539 169.18 245.327 168.355 246.356C167.412 247.531 166.589 248.85 165.976 250.229C164.615 253.288 165.383 257.794 162.743 260.037C162.467 260.271 162.16 260.433 161.844 260.534C163.095 266.678 162.527 273.449 162.499 279.684V280.233C162.504 287.209 162.273 294.192 162.002 301.166L161.729 308.065C161.374 317.267 161.143 326.474 162.037 335.624C166.117 332.009 170.337 328.557 174.703 325.27C177.574 323.108 180.502 321.022 183.481 319.015L185.904 317.397C188.807 315.45 191.779 313.445 194.958 312.052C199.115 310.229 203.067 310.855 207.078 312.724C211.074 314.588 214.953 316.75 218.873 318.769C222.859 320.823 226.856 322.856 230.847 324.898C233.492 326.25 237.367 327.471 239.308 329.96C239.431 329.409 239.576 328.86 239.744 328.313C239.552 327.478 239.625 326.577 240.093 325.718C246.611 313.736 252.644 301.468 258.632 289.216C261.663 283.016 264.544 276.741 267.583 270.544L270.535 264.508C271.028 263.501 271.523 262.497 272.02 261.495C272.764 259.993 273.539 258.505 274.293 257.006C274.613 256.373 275.012 255.745 275.322 255.107L275.467 254.785C275.475 254.77 276.191 252.519 275.637 252.734L275.591 252.756C275.307 252.916 275.083 252.561 275.266 252.335C276.046 251.367 277.134 252.224 277.58 253.118C278.809 255.58 276.558 259.446 275.691 261.802L275.645 261.935C272.958 269.542 269.915 277.007 266.797 284.449C260.821 298.711 254.402 312.756 247.995 326.823L247.919 327.065C249.285 326.018 250.743 325.068 251.991 324.142C255.143 321.808 258.386 319.586 261.624 317.373C267.563 313.315 273.66 309.525 279.86 305.883L281.101 305.157C284.199 303.352 287.267 301.89 290.943 302.431C294.356 302.934 297.533 304.77 300.618 306.26L300.936 306.413L310.47 310.946C309.45 306.881 308.347 302.835 307.195 298.804C304.949 290.942 302.479 283.146 299.8 275.422C297.299 268.202 294.593 261.061 291.731 253.979L290.869 251.852C289.705 248.937 288.545 245.758 285.211 244.859C281.877 243.96 278.055 245.292 275.009 243.391C274.734 243.219 274.768 242.763 275.103 242.68L276.982 242.204C280.51 241.328 284.647 240.444 287.984 241.298C291.613 242.229 294.617 245.275 296.38 248.444C298.338 251.97 299.719 255.915 301.204 259.675L301.44 260.266C303.147 264.521 304.787 268.798 306.358 273.105C309.497 281.713 312.354 290.425 314.941 299.215C316.187 303.451 317.369 307.708 318.507 311.973C318.832 313.202 319.371 314.689 319.814 316.24C320.319 316.735 320.799 317.287 321.25 317.917C321.996 318.961 321.462 320.185 320.533 320.81C320.497 321.876 320.26 322.881 319.691 323.743C317.478 327.104 311.627 326.237 311.864 321.719C311.9 321.027 312.171 320.367 312.578 319.808L312.565 319.719L312.521 319.552C311.504 319.067 310.485 318.523 309.409 317.991L299.404 313.046C296.506 311.613 293.295 309.4 290.072 308.853C287.068 308.346 283.898 310.584 281.318 311.936L281.151 312.022C274.911 315.221 268.716 318.528 262.547 321.859C259.536 323.487 256.564 325.183 253.562 326.828C251.056 328.207 248.347 330.182 245.528 330.96C244.324 331.896 242.893 331.77 241.743 331.064C242.267 334.319 242.235 337.658 242.398 340.987C242.615 345.436 242.647 349.898 242.718 354.352L242.748 356.022C242.937 365.871 243.038 375.723 243.078 385.575C243.211 420.656 242.822 455.747 242.733 490.828C242.686 508.454 242.336 526.094 241.878 543.713C241.684 551.178 241.28 558.634 240.842 566.09L240.6 570.156C240.088 578.735 239.788 587.409 238.2 595.873C237.993 596.976 236.126 597.005 235.942 595.873C234.482 586.804 234.4 577.535 234.12 568.361L234.06 566.526C233.723 556.674 233.563 546.83 233.598 536.973C233.721 501.877 234.634 466.806 235.38 431.722C235.755 414.094 236.006 396.459 236.589 378.836C236.88 370.018 237.21 361.208 237.601 352.392C237.776 348.458 237.944 344.525 238.207 340.598L238.323 338.913C238.404 337.815 238.471 336.729 238.549 335.653C235.001 336.951 231.756 334.55 228.562 332.908C224.881 331.014 221.202 329.116 217.521 327.227L213.837 325.339L206.462 321.576C203.143 319.879 200.585 318.193 197.044 320.182C184.286 327.34 172.563 336.867 161.941 346.864C159.902 348.783 155.598 348.268 155.082 345.055C152.878 331.327 154.218 317.402 155.344 303.635L155.759 298.523C156.261 292.417 156.809 286.313 157.538 280.233C157.865 277.512 158.19 274.794 158.55 272.08L158.826 270.044C159.276 266.826 159.569 263.627 160.527 260.542C160.224 260.443 159.934 260.283 159.675 260.037C156.793 257.304 158.183 252.559 159.495 249.306C160.796 246.095 162.773 243.293 165.252 240.882C165.794 240.355 166.555 240.015 167.321 239.998C173.331 236.014 179.926 234.027 186.786 236.201C186.98 235.28 187.175 234.359 187.384 233.441L187.593 232.522C188.128 230.245 188.325 226.482 190.29 224.961ZM251.885 584.684C253.752 584.169 255.793 584.711 257.16 586.077C258.526 587.444 259.066 589.488 258.553 591.352C258.295 592.273 257.832 593.068 257.16 593.745C256.532 594.371 255.798 594.814 254.963 595.082L254.769 595.141L254.464 595.267C253.528 595.518 252.592 595.518 251.659 595.267C250.765 595.016 249.989 594.565 249.33 593.91C248.677 593.253 248.224 592.475 247.973 591.581C247.722 590.645 247.722 589.709 247.973 588.776L248.101 588.471C248.359 587.552 248.822 586.754 249.494 586.077C250.172 585.405 250.967 584.94 251.885 584.684ZM362.625 398.768C362.93 398.416 363.428 398.867 363.238 399.241C360.333 404.939 357.095 410.595 353.913 416.148C354.167 417.687 354.42 419.213 354.711 420.701C355.949 427.044 357.469 433.271 358.459 439.673C362.017 462.684 363.864 485.948 365.449 509.166C367.04 532.469 367.242 555.781 367.481 579.129C367.503 581.153 365.947 583.504 363.861 583.886C362.906 584.061 362.192 584.026 361.239 583.886C359.069 583.566 357.713 581.079 357.619 579.129C356.998 566.081 356.161 553.047 355.191 540.019C353.472 516.922 352.421 493.761 351.032 470.64L350.545 462.558C350.02 453.802 349.54 445.039 349.382 436.27C349.279 430.459 349.589 424.653 349.4 418.849C349.222 413.491 348.678 407.665 349.86 402.4C349.904 402.203 350.215 402.154 350.306 402.344C351.532 404.929 352.31 407.739 352.911 410.607C356.075 406.604 359.296 402.592 362.625 398.768ZM155.372 257.245C155.816 257.21 155.798 257.877 155.372 257.927C149.162 258.648 143.164 261.177 137.301 263.324L136.799 263.506C130.876 265.658 125.101 268.158 119.543 271.137C108.678 276.963 98.6999 284.476 89.878 293.077C54.6567 327.409 38.6056 376.92 26.8439 423.446C20.309 449.296 15.6619 475.584 12.6499 502.072C11.1604 515.171 10.1075 528.32 9.49365 541.491C9.17945 548.241 8.98123 554.997 8.8985 561.754C8.8559 565.214 8.84334 568.676 8.84753 572.138C8.84975 573.724 9.13267 575.721 8.70865 577.26C8.31541 578.688 7.20636 579.944 6.38591 581.133C5.41377 582.541 3.66624 582.467 2.68056 581.133L2.31687 580.645C1.26545 579.252 0.23692 577.917 0.0867164 576.092C-0.0740754 574.137 0.0394354 572.123 0.0320483 570.161C0.0153043 566.204 0.064306 562.249 0.143348 558.292C0.295767 550.713 0.59445 543.136 1.03817 535.567C1.93914 520.207 3.42222 504.876 5.54576 489.639C9.32055 462.551 14.9783 435.721 22.3893 409.396C29.3811 384.563 37.664 359.802 49.4636 336.798C60.4193 315.44 74.7919 295.571 93.7567 280.644C102.576 273.703 112.177 267.919 122.527 263.56C127.748 261.364 133.23 259.571 138.805 258.547C144.318 257.538 149.808 257.678 155.372 257.245ZM252.954 540.787C253.939 540.78 255.037 540.996 255.882 541.541L257.012 542.415C257.317 542.806 257.62 543.203 257.926 543.597C258.63 544.518 258.723 546.007 258.576 547.103C258.544 547.834 258.327 548.517 257.926 549.147L257.066 550.26C256.239 550.935 255.549 551.415 254.55 551.74C254.028 551.91 253.523 551.944 253.021 551.917L252.853 551.907L252.954 551.922L252.779 551.902C252.614 551.888 252.452 551.87 252.287 551.848C252.176 551.833 252.063 551.823 251.952 551.809C251.844 551.801 251.74 551.796 251.629 551.806C250.359 551.927 249.081 551.205 248.177 550.376C247.365 549.63 246.636 548.046 246.749 546.923L246.798 546.453C246.882 545.663 246.953 545.35 247.288 544.557C247.613 543.784 248.069 543.099 248.689 542.523C249.874 541.42 251.326 540.799 252.954 540.787ZM249.019 482.873C250.706 481.033 253.604 480.898 255.697 482.011C256.207 482.284 256.675 482.717 257.125 483.082C258.258 483.998 258.701 485.65 258.765 487.041C258.827 488.418 258.1 490.053 257.125 491.003L256.889 491.232C256.305 491.801 255.471 492.294 254.653 492.444C253.338 492.685 252.233 492.678 251.009 492.161C249.955 491.717 249.049 491.003 248.431 490.033L248.332 489.871C248.288 489.802 248.249 489.733 248.212 489.661L248.157 489.555C246.985 487.3 247.301 484.746 249.019 482.873ZM249.893 424.655C250.654 424.416 251.415 424.382 252.176 424.552C252.693 424.554 253.173 424.685 253.619 424.943C254.104 425.079 254.528 425.325 254.882 425.679C255.313 425.933 255.655 426.275 255.909 426.706C256.416 427.26 256.758 427.908 256.936 428.654L257.14 430.176L256.936 431.7L256.357 433.067C256.199 433.273 256.039 433.48 255.877 433.687C255.623 434.118 255.279 434.463 254.848 434.719C254.567 434.997 254.247 435.206 253.887 435.349C252.612 436.265 250.915 436.563 249.403 436.147C248.507 435.896 247.729 435.44 247.069 434.785C246.412 434.123 245.959 433.345 245.707 432.449L245.604 431.732C245.471 430.772 245.449 430.24 245.722 429.018C245.84 428.482 246.188 427.723 246.367 427.406C247.143 426.044 248.406 425.111 249.893 424.655ZM315.978 382.77C318.162 382.756 320.349 382.758 322.533 382.783L324.173 382.805C326.916 382.849 329.267 382.566 331.424 384.47C332.991 385.853 332.299 388.17 330.814 389.212C328.561 390.79 325.736 389.997 323.148 389.823C320.418 389.64 317.687 389.488 314.954 389.365C309.66 389.128 304.366 388.976 299.069 388.953C293.782 388.931 288.488 388.981 283.204 389.067C277.826 389.153 272.227 389.655 266.879 389.099C266.145 389.022 265.977 388.055 266.704 387.804C271.742 386.06 277.413 385.494 282.692 384.829C288.141 384.14 293.588 383.652 299.069 383.337C304.698 383.014 310.337 382.81 315.978 382.77ZM249.884 365.64L250.063 365.645C251.026 365.647 251.925 365.874 252.764 366.324L252.944 366.423L254.099 367.317C254.806 368.028 255.296 368.868 255.567 369.836L255.771 371.353C255.801 372.138 255.636 372.872 255.279 373.551C255.05 374.261 254.656 374.871 254.099 375.388C253.582 375.945 252.969 376.339 252.262 376.57C251.634 376.898 250.962 377.065 250.246 377.065L250.063 377.06C249.034 377.058 248.074 376.797 247.185 376.282L246.03 375.388C245.323 374.677 244.833 373.837 244.562 372.869L244.358 371.353C244.328 370.567 244.491 369.833 244.85 369.154C245.079 368.445 245.473 367.834 246.03 367.317C246.547 366.76 247.158 366.366 247.867 366.135C248.495 365.805 249.167 365.64 249.884 365.64ZM266.8 231.545C268.029 229.762 270.257 231.348 269.939 232.779C270.023 236.802 270.228 240.705 271.144 244.645C271.562 246.45 272.111 248.254 272.958 249.907L273.313 250.604C274.409 252.768 275.258 254.812 273.783 257.185C273.089 258.306 271.831 259.148 270.469 259.089C264.426 258.828 263.596 250.414 263.23 245.716C262.85 240.88 264.027 235.564 266.8 231.545Z" fill="black"/>
<path fill-rule="evenodd" clip-rule="evenodd" d="M329.245 123.969C327.275 91.5979 316.773 54.8975 285.871 39.0037C217.745 11.6517 128.172 80.5324 123.429 150.9C121.776 174.987 135.144 201.307 159.574 208.002C165.006 215.202 173.221 219.598 181.327 223.414C277.893 273.535 340.272 232.793 329.245 123.969Z" fill="white"/>
<path fill-rule="evenodd" clip-rule="evenodd" d="M351.246 103.833C347.834 94.3506 344.229 84.9415 340.437 75.6049C336.743 66.5186 333.407 57.2355 328.819 48.5796C301.426 -3.11878 251.61 -3.11877 225.858 3.63621C212.505 -2.11954 187.492 -0.496114 173.587 4.69773C151.076 13.1062 123.635 46.183 114.253 61.0443C93.5387 93.8562 80.6114 137.527 94.371 175.445C96.1695 180.399 98.4629 184.989 101.045 189.412C99.4186 191.618 97.5465 193.706 95.4724 195.76C89.3089 201.859 83.1454 207.759 77.8208 214.638C72.5297 221.476 68.1432 228.748 64.8779 236.765C58.7205 251.884 58.4241 269.005 66.5644 283.432C73.6466 295.982 86.1928 305.332 100.327 306.223C101.053 306.324 101.78 306.415 102.51 306.489C104.382 309.574 106.666 312.416 109.273 314.893C117.258 322.492 136.293 326.39 147.15 326.639C147.706 327.087 148.268 327.535 148.83 327.978C155.473 333.208 162.443 338.485 170.071 342.206C175.235 344.73 182.009 346.837 187.399 345.015C189.844 346.65 193.855 346.305 196.278 344.968C200.265 342.772 203.505 338.817 205.475 334.769C210.257 324.937 209.107 314.182 207.881 303.68C206.526 292.079 205.226 280.474 203.904 268.874C202.87 259.803 201.789 250.581 199.031 241.842C197.605 237.314 195.739 232.963 193.323 228.873C193.387 228.531 193.375 228.186 193.276 227.864C192.486 225.293 190.853 223.946 188.918 222.198C188.667 221.974 188.418 221.745 188.174 221.511C187.207 220.408 186.17 219.381 185.062 218.512C184.636 218.081 184.215 217.642 183.794 217.207C180.292 213.538 176.983 209.682 174.045 205.547C171.194 201.541 168.618 197.358 166.168 193.095C163.676 188.759 162.027 183.977 159.542 179.673C159.328 179.304 158.786 179.232 158.486 179.538C157.715 180.335 157.221 181.219 157.314 182.15L156.93 182.207C156.784 180.803 155.489 179.658 153.73 179.966C151.098 180.422 148.934 180.594 146.655 179.72C147.056 177.06 147.425 174.396 147.789 171.727C148.455 166.815 149.074 161.885 149.605 156.958C150.89 157.263 152.164 157.706 153.413 158.268C155.192 159.065 156.872 160.137 158.309 161.454C159.722 162.754 160.702 164.507 162.428 165.413C164.415 166.45 166.813 164.736 166.23 162.488C165.05 157.945 158.365 155.345 154.23 154.486C152.809 154.188 151.358 154.064 149.907 154.094C150.234 150.93 150.526 147.766 150.765 144.597C150.879 143.097 150.984 141.6 151.082 140.096C154.297 139.123 157.742 138.83 161.086 139.288C162.189 140.169 163.292 141.039 164.359 141.918C167.744 144.717 171.115 147.532 174.444 150.4C174.747 150.654 175.043 150.91 175.346 151.169C177.323 152.873 179.788 151.186 179.455 148.775C176.739 129.031 188.829 113.325 202.985 101.158C218.653 87.684 247.14 86.115 265.773 62.7766C274.357 64.5241 293.516 69.7138 301.426 82.3183C312.494 99.9815 311.048 115.807 311.891 135.844C312.735 155.896 314.877 176.812 310.325 196.582C306.129 214.813 294.76 230.388 277.125 237.548C276.689 237.725 276.245 237.898 275.805 238.065C266.684 241.505 256.734 242.478 247.14 240.665C236.523 238.659 227.658 233.798 218.826 227.817C218.316 227.48 217.57 228.176 217.957 228.686C229.599 244.123 252.467 249.279 270.607 245.204C271.456 245.012 272.298 244.805 273.136 244.576C269.078 256.247 269.895 269.061 275.179 280.428C278.358 287.266 283.207 293.183 289.111 297.851C295.619 302.993 303.693 307.144 308.209 314.364C312.344 320.978 311.117 328.409 304.036 332.228C302.253 333.196 301.566 336.326 303.334 337.7C304.011 338.219 304.686 338.751 305.378 339.271C309.342 342.262 320.231 347.884 321.994 348.091C337.652 349.95 348.181 338.448 354.93 324.88C362.851 308.956 360.793 289.551 352.061 274.385C345.061 262.216 331.269 250.227 336.753 234.827C338.708 229.326 342.709 224.638 346.595 220.4C351.027 215.577 355.792 211.061 360.042 206.064C364.267 201.105 368.013 195.708 370.103 189.483C373.156 180.387 371.637 170.55 369.345 161.469C364.427 141.974 358.045 122.739 351.246 103.833Z" fill="black"/>
<path fill-rule="evenodd" clip-rule="evenodd" d="M263.535 205.609C260.038 204.183 256.918 201.802 254.636 198.761C253.843 197.702 253.639 196.587 253.804 195.565C253.991 194.418 254.67 193.376 255.596 192.679C256.524 191.98 257.687 191.633 258.81 191.81C259.787 191.963 260.757 192.497 261.528 193.605L261.688 193.827C263.045 195.664 264.81 197.168 266.825 198.141C268.765 199.076 270.937 199.512 273.182 199.259C277.462 198.776 280.409 196.461 283.544 193.317C283.933 192.92 284.322 192.512 284.711 192.096C284.957 191.719 285.302 191.475 285.681 191.349C286.102 191.207 286.58 191.216 287.018 191.369C287.439 191.514 287.816 191.795 288.07 192.167C288.309 192.519 288.446 192.955 288.402 193.457C288.114 196.712 286.413 199.621 283.994 201.903C281.308 204.439 277.748 206.193 274.396 206.808C270.705 207.485 266.943 207 263.535 205.609ZM276.14 155.357C280.067 157.746 286.053 163.316 281.828 169.238C276.851 174.46 269.691 168.474 266.162 165.766C262.89 163.668 259.211 169.065 262.247 171.515C287.75 190.404 298.101 155.983 278.127 152.55C275.925 152.171 275.11 154.618 276.14 155.357ZM230.438 133.385C230.872 127.996 239.076 126.772 239.894 132.105C240.623 136.882 239.763 141.27 237.611 145.572C235.557 149.681 230.391 147.766 230 144.023C229.475 139.007 230.167 136.737 230.438 133.385ZM292.896 130.999C294.041 129.501 295.693 128.477 297.67 129.056C303.853 130.863 302.031 139.645 299.859 143.917C298.68 146.239 294.866 146.828 293.142 144.784C290.333 141.452 288.988 134.796 292.559 131.513C292.657 131.343 292.765 131.172 292.896 130.999ZM237.525 109.802L238.502 109.631C241.524 109.108 245.279 108.606 247.416 111.036C248.551 112.325 248.94 114.719 247.416 115.953C244.737 118.123 241.772 117.282 238.562 117.466C235.915 117.618 233.371 118.056 230.822 118.785C225.228 120.384 220.67 123.304 215.893 126.51C215.268 126.93 214.627 126.128 214.925 125.542C217.683 120.138 223.027 115.699 228.38 112.994C231.239 111.55 234.363 110.352 237.525 109.802ZM287.26 107.381L288.008 107.535C296.144 109.236 306.712 112.634 310.563 120.627C310.711 121.757 310.556 121.999 310.43 122.158L310.388 122.21C310.283 122.346 310.201 122.532 309.711 122.686C309.576 122.653 309.438 122.619 309.3 122.583C307.532 122.12 306.136 121.482 304.784 120.82L303.317 120.098C301.615 119.263 299.899 118.459 298.079 117.865C294.198 116.598 290.205 115.706 286.152 115.23C285.272 115.127 284.425 114.83 283.758 114.321C283.125 113.838 282.64 113.17 282.419 112.282C282.133 111.132 282.217 110.262 282.832 109.225C283.295 108.446 283.96 107.906 284.721 107.596C285.497 107.28 286.381 107.205 287.26 107.381Z" fill="black"/>
</svg>
