<svg width="1440" height="733" viewBox="0 0 1440 733" fill="none" xmlns="http://www.w3.org/2000/svg">
<path d="M-19 112.728L30.2333 131.516C79.4667 150.304 177.933 187.88 276.4 206.668C374.867 225.456 473.333 225.456 571.8 200.445C670.267 174.964 768.733 125.645 867.2 93.9402C965.667 62.2354 1064.13 50.4929 1162.6 75.1522C1261.07 99.8115 1359.53 163.221 1408.77 194.104L1458 225.456V375.761H1408.77C1359.53 375.761 1261.07 375.761 1162.6 375.761C1064.13 375.761 965.667 375.761 867.2 375.761C768.733 375.761 670.267 375.761 571.8 375.761C473.333 375.761 374.867 375.761 276.4 375.761C177.933 375.761 79.4667 375.761 30.2333 375.761H-19V112.728Z" fill="#F3F4F5"/>
<rect x="-0.39801" y="327.396" width="1458.4" height="1145.88" fill="#F3F4F5"/>
</svg>
